<?xml version="1.0" standalone="no"?><!DOCTYPE svg PUBLIC "-//W3C//DTD SVG 1.1//EN" "http://www.w3.org/Graphics/SVG/1.1/DTD/svg11.dtd"><svg t="1544521148697" class="icon" style="" viewBox="0 0 1024 1024" version="1.1" xmlns="http://www.w3.org/2000/svg" p-id="2139" xmlns:xlink="http://www.w3.org/1999/xlink" width="32" height="32"><defs><style type="text/css"></style></defs><path d="M256 219.429c-21.943 0-36.571 14.628-36.571 36.571v299.886c0 14.628 14.628 29.257 36.571 29.257h7.314c14.629 0 29.257-14.629 29.257-36.572V256c0-21.943-14.628-36.571-36.571-36.571z m512 438.857H402.286c-21.943 0-36.572 14.628-36.572 36.571s14.629 36.572 36.572 36.572H768c21.943 0 36.571-14.629 36.571-36.572S789.943 658.286 768 658.286z m-512 0c-21.943 0-36.571 14.628-36.571 36.571S234.057 731.43 256 731.43s36.571-14.629 36.571-36.572-14.628-36.571-36.571-36.571z m512-219.429H402.286c-21.943 0-36.572 14.629-36.572 36.572S380.343 512 402.286 512H768c21.943 0 36.571-14.629 36.571-36.571S789.943 438.857 768 438.857z m0-219.428H402.286c-21.943 0-36.572 14.628-36.572 36.571s14.629 36.571 36.572 36.571H768c21.943 0 36.571-14.628 36.571-36.571S789.943 219.429 768 219.429zM841.143 0H182.857C124.343 0 73.143 51.2 73.143 109.714v804.572c0 58.514 51.2 109.714 109.714 109.714h658.286c58.514 0 109.714-51.2 109.714-109.714V109.714C950.857 51.2 899.657 0 841.143 0z m36.571 914.286c0 21.943-14.628 36.571-36.571 36.571H182.857c-21.943 0-36.571-14.628-36.571-36.571V109.714c0-21.943 14.628-36.571 36.571-36.571h658.286c21.943 0 36.571 14.628 36.571 36.571v804.572z" fill="#ffffff" p-id="2140"></path></svg>