<?xml version="1.0" standalone="no"?><!DOCTYPE svg PUBLIC "-//W3C//DTD SVG 1.1//EN" "http://www.w3.org/Graphics/SVG/1.1/DTD/svg11.dtd"><svg t="1547528289712" class="icon" style="" viewBox="0 0 1024 1024" version="1.1" xmlns="http://www.w3.org/2000/svg" p-id="4331" xmlns:xlink="http://www.w3.org/1999/xlink" width="32" height="32"><defs><style type="text/css"></style></defs><path d="M67.552171 1004.904436C41.830276 977.840809 36.575504 964.549465 36.575504 933.452523 36.575504 796.494823 248.477541 685.485855 509.880426 685.485855 771.272274 685.485855 987.424496 796.494823 987.424496 933.452523 987.424496 964.549465 975.546059 1000.696242 943.719355 1013.309901 911.870573 1025.912633 93.274066 1031.957136 67.552171 1004.904436ZM511.706352 0C656.66523 0 759.895025 148.412742 747.321104 305.777464 735.288118 456.168605 627.973728 558.99072 511.706352 558.99072 395.438977 558.99072 288.124587 456.168605 276.102637 305.777464 263.517675 148.412742 366.747474 0 511.706352 0Z" p-id="4332" fill="#e6e6e6"></path></svg>