<?xml version="1.0" standalone="no"?><!DOCTYPE svg PUBLIC "-//W3C//DTD SVG 1.1//EN" "http://www.w3.org/Graphics/SVG/1.1/DTD/svg11.dtd"><svg t="1573524781791" class="icon" viewBox="0 0 1024 1024" version="1.1" xmlns="http://www.w3.org/2000/svg" p-id="2826" width="32" height="32" xmlns:xlink="http://www.w3.org/1999/xlink"><defs><style type="text/css"></style></defs><path d="M742.4 780.8V259.584c-0.512-11.776-2.56-31.232-14.848-43.52-8.704-8.704-21.504-12.8-38.4-12.8-34.816 0-52.224 26.112-52.224 77.824v95.744c0 11.776-9.728 22.016-22.016 22.016h-404.48v357.888c0 59.904 38.4 108.544 98.304 108.544h10.24l453.632-0.512C753.664 845.824 742.4 816.64 742.4 780.8z m-123.392-89.088H334.336c-14.336 0-26.112-11.776-26.112-26.112s11.776-26.112 26.112-26.112h284.672c14.336 0 26.112 11.776 26.112 26.112s-11.776 26.112-26.112 26.112z m0-139.264H334.336c-14.336 0-26.112-11.776-26.112-26.112s11.776-26.112 26.112-26.112h284.672c14.336 0 26.112 11.776 26.112 26.112s-11.776 26.112-26.112 26.112zM786.432 780.8c0 19.456 5.12 65.536 51.2 65.536 18.944 0 30.72-7.68 38.4-17.408 5.12-8.192 9.216-17.408 11.264-27.136v-1.024c0-1.024 0.512-2.56 0.512-3.584 0.512-5.12 1.024-9.728 1.024-12.8V654.848c0-8.192-6.144-14.848-14.848-14.848h-87.552v140.8z" fill="#ffffff" p-id="2827"></path><path d="M150.016 355.328h443.392V281.6c0-71.68 31.744-116.224 86.016-120.832-5.12-1.024-10.752-1.536-15.872-1.536H214.528c-43.52 0-79.36 32.768-79.36 73.216v111.616c0 5.12 6.144 11.264 14.848 11.264z" fill="#ffffff" p-id="2828"></path></svg>