<?xml version="1.0" standalone="no"?><!DOCTYPE svg PUBLIC "-//W3C//DTD SVG 1.1//EN" "http://www.w3.org/Graphics/SVG/1.1/DTD/svg11.dtd"><svg t="1544524671032" class="icon" style="" viewBox="0 0 1024 1024" version="1.1" xmlns="http://www.w3.org/2000/svg" p-id="3835" xmlns:xlink="http://www.w3.org/1999/xlink" width="32" height="32"><defs><style type="text/css"></style></defs><path d="M967.312 971.702l-103.18 24.5c-53.223 12.661-55.88 11.374-68.816-39.903l-10.496-38.861 214.255-50.974 6.934 25.679c16.28 64.54 22.473 65.006-38.697 79.559z m-318.67-557.237c-12.908-51.275-11.155-53.634 42.039-66.295l103.209-24.528c53.166-12.661 55.853-11.345 65.445 26.665L984.798 813.71 770.54 864.655l-121.898-450.19z m-145.525 588.587H438.99c-54.756 0-71.09-1.891-71.09-54.702V145.206h206.308v803.145c0 52.81-8.111 54.7-71.09 54.7zM367.9 75.595c0-52.783 16.334-54.647 71.09-54.647h64.127c54.757 0 71.091 1.864 71.091 54.647v42.341H367.9V75.595z m-141.523 927.457H64.027c-54.785 0-57.086-1.891-57.086-54.702v-45.93h276.494v45.93c0 52.812-2.303 54.702-57.058 54.702zM6.941 827.274h276.494v47.85H6.94v-47.85z m0-423.634h276.494V799.98H6.94V403.64z m0-123.408c0-52.81 2.302-54.674 57.086-54.674h162.35c54.755 0 57.058 1.864 57.058 54.674v68.843H6.94v-68.843z" p-id="3836" fill="#ffffff"></path></svg>